HIERARCHY
ROOT Hip
{
  OFFSET 0.0 0.0 0.0
  CHANNELS 6 Xposition Yposition Zposition Xrotation Yrotation Zrotation
  JOINT LowerSpine
  {
    OFFSET 0.0 0.061367 -0.03653
    CHANNELS 3 Xrotation Yrotation Zrotation
    JOINT MiddleSpine
    {
      OFFSET 0.0 0.056002 0.002633
      CHANNELS 3 Xrotation Yrotation Zrotation
      JOINT Chest
      {
        OFFSET 0.0 0.069296 -0.013882
        CHANNELS 3 Xrotation Yrotation Zrotation
        JOINT Neck
        {
          OFFSET 0.0 0.156156 -0.002923
          CHANNELS 3 Xrotation Yrotation Zrotation
          JOINT Head
          {
            OFFSET 0.0 0.088183 0.023986
            CHANNELS 3 Xrotation Yrotation Zrotation
            End Site
            {
              OFFSET 1e-06 0.123215 0.003678
            }
          }
        }
        JOINT LClavicle
        {
          OFFSET 0.014189 0.150698 0.046467
          CHANNELS 3 Xrotation Yrotation Zrotation
          JOINT LShoulder
          {
            OFFSET 0.082893 0.021616 -0.034976
            CHANNELS 3 Xrotation Yrotation Zrotation
            JOINT LForearm
            {
              OFFSET 0.195645 -0.000695 -0.001695
              CHANNELS 3 Xrotation Yrotation Zrotation
              JOINT LHand
              {
                OFFSET 0.163209 0.000474 -0.000977
                CHANNELS 3 Xrotation Yrotation Zrotation
                End Site
                {
                  OFFSET 0.0 0.006864 0.0
                }
              }
            }
          }
        }
        JOINT RClavicle
        {
          OFFSET -0.014189 0.150698 0.046467
          CHANNELS 3 Xrotation Yrotation Zrotation
          JOINT RShoulder
          {
            OFFSET -0.082908 0.021619 -0.034982
            CHANNELS 3 Xrotation Yrotation Zrotation
            JOINT RForearm
            {
              OFFSET -0.195645 -0.000695 -0.001695
              CHANNELS 3 Xrotation Yrotation Zrotation
              JOINT RHand
              {
                OFFSET -0.163209 0.000474 -0.000977
                CHANNELS 3 Xrotation Yrotation Zrotation
                End Site
                {
                  OFFSET 0.0 0.006864 0.0
                }
              }
            }
          }
        }
      }
    }
  }
  JOINT RThigh
  {
    OFFSET -0.072558 0.02774 -0.005953
    CHANNELS 3 Xrotation Yrotation Zrotation
    JOINT RShin
    {
      OFFSET -0.005253 -0.285537 0.0
      CHANNELS 3 Xrotation Yrotation Zrotation
      JOINT RFoot
      {
        OFFSET 0.0 -0.28038 0.0
        CHANNELS 3 Xrotation Yrotation Zrotation
        JOINT RToe
        {
          OFFSET 0.0 -0.030816 0.064441
          CHANNELS 3 Xrotation Yrotation Zrotation
          End Site
          {
            OFFSET 0.0 0.0 0.043231
          }
        }
      }
    }
  }
  JOINT LThigh
  {
    OFFSET 0.072557 0.027741 -0.005953
    CHANNELS 3 Xrotation Yrotation Zrotation
    JOINT LShin
    {
      OFFSET 0.005253 -0.285539 0.0
      CHANNELS 3 Xrotation Yrotation Zrotation
      JOINT LFoot
      {
        OFFSET 0.0 -0.28038 0.0
        CHANNELS 3 Xrotation Yrotation Zrotation
        JOINT LToe
        {
          OFFSET 0.0 -0.030816 0.064441
          CHANNELS 3 Xrotation Yrotation Zrotation
          End Site
          {
            OFFSET 0.0 0.0 0.043231
          }
        }
      }
    }
  }
}
MOTION
Frames: 17
Frame Time: 0.03333333333333333
-0.051752 0.416081 -0.113954 48.754704 6.070524 -0.094432 -3.107612 -0.609005 1.128075 0.261785 0.808397 -0.080683 3.365017 0.777603 -4.310966 -1.916529 0.279613 -0.790627 0.055869 -0.41455 -0.069038 3.17012 0.971604 -21.075075 24.736715 -29.256516 -45.585709 16.193718 -54.973053 -1.436998 0.142028 0.219602 -0.125589 2.204529 -2.888095 18.910618 16.431477 38.0653 64.170197 5.190252 37.766602 5.259634 -0.329639 -0.095991 -0.05093 -103.810776 3.11763 8.647724 78.579247 -2.271322 -2.298829 -6.209853 -2.162104 -1.856839 -0.118867 0.312415 0.153159 -102.616028 -7.139053 8.294666 82.161263 5.09181 -12.273532 -1.396042 1.095091 1.232574 0.140367 -0.217123 -0.113045 
-0.051057 0.415593 -0.1155 48.508911 6.068072 -0.036439 -3.059867 -0.605977 1.108078 0.246851 0.815928 -0.076924 3.28272 0.815773 -4.264947 -1.896762 0.284282 -0.789056 0.055301 -0.410691 -0.068141 3.136774 0.976483 -20.986128 24.745159 -29.060694 -45.90781 16.248943 -55.037189 -1.438251 0.141704 0.219276 -0.125283 2.189932 -2.876463 18.870522 16.354031 38.107021 64.25341 5.200344 37.576439 5.228257 -0.321748 -0.100161 -0.050151 -103.668213 3.167892 8.556119 78.623489 -2.278362 -2.234377 -6.225922 -2.157951 -1.851441 -0.117493 0.312179 0.152249 -102.477402 -7.038795 8.236688 82.168137 5.095265 -12.20392 -1.4169 1.08166 1.212422 0.140143 -0.215234 -0.1122 
-0.050262 0.414676 -0.117475 48.279179 6.070998 -0.023479 -3.02353 -0.602663 1.095422 0.232826 0.81811 -0.072792 3.213462 0.861485 -4.209619 -1.883617 0.288768 -0.790754 0.054942 -0.408492 -0.067333 3.110602 0.977323 -20.935505 24.747416 -28.817778 -46.202522 16.257822 -55.032524 -1.426275 0.141893 0.219669 -0.125413 2.17825 -2.868994 18.852304 16.294443 38.045856 64.31115 5.161312 37.475376 5.199222 -0.316774 -0.103341 -0.049731 -103.559982 3.222379 8.489501 78.773491 -2.274264 -2.184814 -6.251575 -2.1605 -1.852528 -0.11707 0.311793 0.151967 -102.401733 -6.964031 8.179603 82.273323 5.077127 -12.146302 -1.437959 1.073716 1.200087 0.140432 -0.2144 -0.111852 
-0.049541 0.413592 -0.119469 48.165112 6.111817 -0.075692 -3.000857 -0.598591 1.09045 0.220318 0.816164 -0.071557 3.166805 0.91318 -4.152082 -1.877801 0.292509 -0.795282 0.054732 -0.40765 -0.066687 3.093262 0.973585 -20.922083 24.747351 -28.568712 -46.419815 16.227119 -54.970222 -1.407482 0.142487 0.220618 -0.125805 2.171909 -2.866414 18.857849 16.238447 37.907658 64.339035 5.075412 37.464142 5.180126 -0.314607 -0.105399 -0.049672 -103.521576 3.281361 8.443588 78.984879 -2.258645 -2.151516 -6.287138 -2.169518 -1.859428 -0.117607 0.311446 0.152361 -102.423592 -6.915473 8.112841 82.437355 5.050658 -12.11278 -1.457954 1.070851 1.194868 0.141018 -0.214568 -0.11195 
-0.04898 0.412648 -0.121171 48.226295 6.213902 -0.206617 -2.99193 -0.593591 1.092613 0.210888 0.810941 -0.073225 3.143847 0.965533 -4.090394 -1.877793 0.295252 -0.801946 0.05472 -0.407564 -0.066199 3.084437 0.966155 -20.942316 24.735323 -28.37299 -46.525558 16.181194 -54.85479 -1.385656 0.143276 0.221789 -0.126158 2.171091 -2.869983 18.886736 16.183483 37.709435 64.332344 4.948216 37.541565 5.181142 -0.314934 -0.105669 -0.049862 -103.560493 3.344454 8.41803 79.185226 -2.231323 -2.134785 -6.326811 -2.183562 -1.870301 -0.118008 0.311036 0.153185 -102.55201 -6.887791 8.024857 82.616852 5.029704 -12.101673 -1.478736 1.074223 1.196713 0.141684 -0.215526 -0.112396 
-0.04862 0.412307 -0.122235 48.559235 6.398098 -0.399694 -2.99763 -0.587921 1.100836 0.206621 0.805521 -0.082104 3.15441 1.013286 -4.035872 -1.880586 0.297865 -0.809637 0.054853 -0.406776 -0.065778 3.082657 0.957107 -20.995649 24.719488 -28.278715 -46.492092 16.144911 -54.729721 -1.376934 0.143797 0.222234 -0.125923 2.176743 -2.883736 18.935505 16.110319 37.512169 64.299026 4.798114 37.66959 5.204329 -0.316579 -0.103884 -0.050064 -103.674843 3.41361 8.391775 79.26889 -2.19919 -2.126692 -6.371759 -2.199759 -1.883294 -0.116821 0.309914 0.153896 -102.772644 -6.852203 7.901021 82.701485 5.045339 -12.114741 -1.505463 1.085975 1.203497 0.141807 -0.216485 -0.112702 
-0.048608 0.413038 -0.122461 49.203503 6.672177 -0.648259 -3.009535 -0.580464 1.111075 0.206416 0.801675 -0.099523 3.190738 1.048557 -3.995939 -1.88182 0.300364 -0.816259 0.055177 -0.404725 -0.065543 3.084283 0.947523 -21.049898 24.698534 -28.336702 -46.313515 16.153175 -54.629116 -1.378668 0.143881 0.221775 -0.124915 2.186356 -2.904433 18.986977 16.00238 37.396263 64.244888 4.666405 37.808533 5.24471 -0.317835 -0.100699 -0.050068 -103.841331 3.474017 8.353304 79.138863 -2.173612 -2.115726 -6.411948 -2.212099 -1.893945 -0.113474 0.308784 0.154297 -103.046051 -6.795249 7.748068 82.592468 5.117721 -12.148451 -1.536207 1.101904 1.210714 0.141436 -0.217109 -0.112724 
-0.049157 0.415428 -0.121486 50.246132 7.06829 -0.930848 -3.01946 -0.567758 1.119544 0.210427 0.801894 -0.132101 3.243124 1.058819 -3.992867 -1.876037 0.30195 -0.819764 0.055612 -0.400408 -0.065612 3.084093 0.937481 -21.064274 24.689034 -28.638031 -45.954853 16.276136 -54.57103 -1.400711 0.143418 0.220473 -0.122994 2.197338 -2.929411 19.025372 15.830944 37.498062 64.169708 4.620146 37.854485 5.302858 -0.316643 -0.097102 -0.049667 -104.035828 3.543397 8.282491 78.679657 -2.157693 -2.091446 -6.440446 -2.215055 -1.898619 -0.107842 0.308193 0.154126 -103.327393 -6.677748 7.567802 82.158157 5.285542 -12.204672 -1.575583 1.118333 1.212582 0.140601 -0.216987 -0.112407 
-0.050158 0.420239 -0.119128 51.721508 7.596034 -1.293743 -3.01178 -0.543125 1.119863 0.237923 0.8109 -0.200196 3.36294 1.021034 -4.055983 -1.837308 0.307596 -0.812906 0.055179 -0.389975 -0.065989 3.072592 0.940977 -21.025129 24.590084 -29.344019 -45.391449 16.589943 -54.505394 -1.478205 0.140429 0.215502 -0.119944 2.21455 -2.957745 19.039587 15.450405 38.068096 64.076988 4.714171 37.625114 5.377275 -0.306382 -0.094883 -0.048656 -104.193611 3.660893 8.123686 77.742691 -2.16359 -2.023877 -6.466183 -2.206436 -1.888933 -0.100647 0.303418 0.1515 -103.516174 -6.430832 7.338905 81.218582 5.597301 -12.26887 -1.617684 1.141124 1.196899 0.136825 -0.21125 -0.108976 
-0.051941 0.427691 -0.115312 53.594257 8.30625 -1.719697 -2.973846 -0.509204 1.105635 0.278241 0.834346 -0.296138 3.499729 0.945825 -4.180772 -1.772438 0.316462 -0.797226 0.054354 -0.374021 -0.066514 3.041329 0.944021 -20.885836 24.413256 -30.489979 -44.698193 17.058895 -54.404865 -1.594539 0.136163 0.208677 -0.116149 2.223072 -2.985188 19.001966 14.853283 39.114822 64.05233 4.974034 37.072155 5.443957 -0.287646 -0.094393 -0.046898 -104.197784 3.816454 7.885649 76.148384 -2.195192 -1.913325 -6.457083 -2.169836 -1.862344 -0.090401 0.298789 0.146899 -103.519768 -6.021339 7.029698 79.639359 6.06658 -12.308352 -1.682319 1.157682 1.160999 0.131619 -0.202582 -0.103827 
-0.053984 0.437168 -0.110547 55.520775 9.068837 -2.159539 -2.881621 -0.475485 1.072349 0.320847 0.885011 -0.394077 3.624605 0.882237 -4.355657 -1.670379 0.334593 -0.776944 0.053916 -0.357667 -0.067825 2.987331 0.938532 -20.640467 24.070557 -31.87394 -44.185654 17.538601 -54.188438 -1.665212 0.132565 0.20314 -0.113305 2.210118 -3.016782 18.893005 14.019682 40.416828 64.262901 5.344738 36.261772 5.464132 -0.26405 -0.09665 -0.045097 -103.871834 4.005309 7.630315 73.962029 -2.255135 -1.777122 -6.381158 -2.095994 -1.819811 -0.078697 0.29806 0.142358 -103.200912 -5.431635 6.666949 77.535851 6.627089 -12.274068 -1.794865 1.166528 1.113409 0.12761 -0.193826 -0.098272 
-0.055404 0.447899 -0.107144 56.94883 9.615906 -2.552829 -2.730239 -0.430704 1.009479 0.350736 0.921535 -0.469923 3.649273 0.798395 -4.462729 -1.505016 0.348176 -0.744119 0.051807 -0.333509 -0.067835 2.892412 0.94826 -20.252857 23.604393 -33.190521 -43.865471 17.898119 -53.908787 -1.730287 0.126633 0.19502 -0.107754 2.169452 -2.988207 18.69614 12.993706 41.909897 64.526787 5.869 35.153534 5.439299 -0.229752 -0.096441 -0.041624 -103.095642 4.094176 7.402517 71.221138 -2.350641 -1.601789 -6.246278 -2.000481 -1.74954 -0.072264 0.290628 0.132625 -102.461838 -4.64867 6.270679 74.922295 7.350866 -12.168889 -1.884288 1.138327 1.03752 0.121315 -0.180478 -0.090862 
-0.055045 0.458942 -0.105174 57.200279 9.826482 -2.798859 -2.536843 -0.390219 0.937632 0.396697 0.952509 -0.519519 3.778327 0.782632 -4.480576 -1.339069 0.35644 -0.718251 0.050086 -0.309953 -0.066435 2.788439 0.937646 -19.861734 23.006491 -34.250263 -44.170879 17.829771 -53.754463 -1.691957 0.12325 0.192493 -0.106192 2.093606 -2.908446 18.429571 11.790751 43.254601 65.12204 5.941067 34.261845 5.388161 -0.19315 -0.101449 -0.038247 -101.503799 3.950497 7.153577 68.151665 -2.540234 -1.443125 -5.952176 -1.875981 -1.658335 -0.062666 0.291603 0.121751 -100.48333 -3.621857 5.952211 71.993546 8.052029 -11.988171 -1.884543 1.071368 0.944025 0.120412 -0.172451 -0.085063 
-0.053821 0.470639 -0.104164 56.673275 9.919229 -2.903412 -2.273959 -0.356589 0.83947 0.436305 0.974319 -0.556807 3.876262 0.763717 -4.526509 -1.148983 0.36273 -0.690736 0.048173 -0.28886 -0.065437 2.677557 0.93217 -19.342356 22.312449 -35.113651 -44.834942 17.671759 -53.710308 -1.668131 0.121332 0.192114 -0.10699 2.016544 -2.822133 18.128094 10.285389 44.684036 65.983047 5.939435 33.081257 5.259742 -0.153066 -0.110484 -0.034122 -99.132744 3.6703 6.738429 64.610786 -2.757563 -1.229304 -5.573121 -1.74215 -1.555038 -0.053895 0.296266 0.111089 -97.544876 -2.449233 5.68856 68.562393 8.733993 -11.711997 -1.874503 0.997255 0.836258 0.118933 -0.164443 -0.079834 
-0.05176 0.483419 -0.103078 55.754116 9.910975 -2.933216 -1.97057 -0.327672 0.724065 0.455876 1.00466 -0.577377 3.869148 0.772317 -4.528151 -0.940044 0.365201 -0.663496 0.045473 -0.266006 -0.063286 2.541878 0.930825 -18.757658 21.468849 -35.782131 -45.950424 17.466263 -53.811478 -1.623233 0.119052 0.191374 -0.107703 1.919624 -2.718311 17.803701 8.613203 45.940414 67.086121 5.90256 31.76343 5.096217 -0.109877 -0.120504 -0.029169 -95.951073 3.316413 6.238268 60.396809 -3.016843 -0.977397 -5.174617 -1.587612 -1.438233 -0.045116 0.298297 0.099027 -93.76181 -1.093674 5.329035 64.484978 9.43256 -11.325571 -1.882231 0.907836 0.708112 0.115607 -0.155118 -0.074469 
-0.048267 0.497569 -0.101372 54.126675 9.722519 -2.912657 -1.635666 -0.304536 0.603308 0.460354 1.042277 -0.592033 3.769028 0.862498 -4.548574 -0.713273 0.373877 -0.632157 0.042278 -0.245518 -0.060001 2.379462 0.928623 -18.140991 20.547386 -36.269062 -47.46484 17.143116 -54.053532 -1.562522 0.115929 0.189257 -0.107578 1.789414 -2.608047 17.47994 6.779772 46.967224 68.439659 5.827336 30.288769 4.904704 -0.071983 -0.125765 -0.023509 -91.287651 2.941131 5.64519 55.11908 -3.281615 -0.710621 -4.739684 -1.415654 -1.310622 -0.040347 0.293532 0.085739 -88.403481 0.625548 4.836258 59.131298 10.197591 -10.795196 -1.920207 0.813042 0.567466 0.111755 -0.145842 -0.069582 
-0.044279 0.512735 -0.09753 52.069046 9.254491 -2.791967 -1.317493 -0.306229 0.52741 0.475581 1.114205 -0.579611 3.65725 1.140522 -4.707872 -0.485927 0.419004 -0.608726 0.043778 -0.252505 -0.060122 2.203304 0.870058 -17.486961 19.717754 -36.342892 -49.178486 16.859127 -54.277401 -1.148101 0.118335 0.1975 -0.113406 1.608727 -2.549625 17.082518 4.84508 47.806545 70.011276 5.741083 28.735962 4.627723 -0.059704 -0.131305 -0.020695 -85.209068 2.673158 5.238469 48.83371 -3.372948 -0.571141 -4.315586 -1.243285 -1.206343 -0.045607 0.299873 0.082623 -81.336777 2.641932 4.426694 52.049496 10.944468 -10.201286 -2.015699 0.723236 0.476604 0.119192 -0.151646 -0.072014 
